<svg version="1.0" xmlns="http://www.w3.org/2000/svg" width="560" height="537.333" viewBox="0 0 420 403">
  <path class="tree-svg" d="M208.3 25.7c-1.9 5.6-8 18.6-11.5 24.7-18 31.3-45 51.1-77.1 56.7-4.3.7-6.5 1.5-5.9 2.1 1.8 1.8 21.8 3 40.2 2.5 20.8-.7 35.9-3.2 49.5-8.2 6.4-2.4-22 22.3-38.1 33.1-22.8 15.2-45.3 23.5-70.7 25.9-4.4.4-6.7 1.1-6.4 1.8.5 1.5 11.7 5 25 7.9 8.9 1.9 13.2 2.2 33.2 2.3 23.6 0 31.8-1 50.5-6 3-.8 5.6-1.3 5.8-1.1.6.6-12.7 11.3-19.8 16-24.4 15.9-58.3 28.3-100 36.6-16.4 3.2-15.5 2.9-13.9 4.5 1.7 1.6 26.7 6.8 43.2 9 18.2 2.3 38.6 3 52 1.6 11.7-1.2 30-5.1 33.9-7.2 1.1-.6 2.2-.9 2.4-.6.6.6-17.1 13.2-29.3 21-13.1 8.2-37.3 20.2-50.8 25.2-19.6 7.2-43.7 12.2-61.3 12.7-4.7.1-8.1.6-7.9 1.2.4 1.3 18.9 6.2 33.7 8.8 10.3 1.8 16.3 2.2 34 2.2 12.3.1 25.4-.5 30.5-1.2 13.4-1.9 36.7-6.8 47.7-10.1l9.8-2.9-2 2.8c-1.1 1.5-5.3 5.9-9.4 9.7-31.4 29.3-82.1 47.5-149.1 53.4-13.2 1.1-16.2 1.6-15.3 2.4.9.9 25.6 5.6 42.3 8 51.5 7.4 94.7 4.9 128.3-7.4l8.2-3 8.2 3c33.6 12.3 76.8 14.8 128.3 7.4 16.7-2.4 41.4-7.1 42.3-8 .9-.8-2.1-1.3-15.3-2.4-67-5.9-117.7-24.1-149.1-53.4-4.1-3.8-8.3-8.2-9.4-9.7l-2-2.8 9.8 2.9c11 3.3 34.3 8.2 47.7 10.1 5.1.7 18.2 1.3 30.5 1.2 17.7 0 23.7-.4 34-2.2 14.7-2.6 33-7.4 33.3-8.7.1-.5-3.2-1-7.3-1.2-18.5-.8-42.3-5.7-61.5-12.8-13.5-5-37.7-17-50.8-25.2-12.2-7.8-29.9-20.4-29.3-21 .2-.3 1.3 0 2.4.6 3.9 2.1 22.2 6 33.9 7.2 13.4 1.4 33.8.7 52-1.6 16.5-2.2 41.5-7.4 43.2-9 1.6-1.6 2.5-1.3-13.9-4.5-41.7-8.3-75.6-20.7-100-36.6-7.1-4.7-20.4-15.4-19.8-16 .2-.2 2.8.3 5.8 1.1 18.7 5 26.9 6 50.5 6 20-.1 24.3-.4 33.2-2.3 13.1-2.8 24.5-6.4 24.7-7.7 0-.6-2.6-1.4-5.9-1.8-23.1-3.1-32.9-5.9-50-14.2-13.2-6.4-27.2-15.6-40.9-26.9-11.3-9.4-21.2-19.3-18.1-18.1 5.6 2 12 3.7 22 5.7 9.4 1.9 14.3 2.2 34 2.3 23 0 35.5-.9 33.9-2.5-.5-.5-4.4-1.6-8.8-2.5C266 100 240.8 81 223.2 50.4c-3.5-6.1-9.6-19.1-11.5-24.7-.4-.9-1.1-1.7-1.7-1.7s-1.3.8-1.7 1.7" fill="green"/>
</svg>
